<svg xmlns="http://www.w3.org/2000/svg" viewBox="0 9.050000190734863 1076.449951171875 52.150001525878906" data-asc="0.992" width="1076.449951171875" height="52.150001525878906"><defs/><g fill="#000000"><g transform="translate(0, 0)"><path d="M9.60 45.85L9.60 24.35L12.85 24.35L12.85 45.85L9.60 45.85M0 36.55L0 33.55L22.45 33.55L22.45 36.55L0 36.55ZM31.40 49.60L31.40 18.45L25.45 20.05L25.45 17.60L32.50 14.60L34.95 14.60L34.95 49.60L31.40 49.60ZM65.20 56.85Q62.50 54.30 60.18 50.77Q57.85 47.25 56.45 42.75Q55.05 38.25 55.05 32.95Q55.05 27.60 56.45 23.15Q57.85 18.70 60.18 15.13Q62.50 11.55 65.20 9.05L68.80 9.05L68.80 9.40Q65.75 12.35 63.45 16.02Q61.15 19.70 59.85 23.98Q58.55 28.25 58.55 32.95Q58.55 37.65 59.88 41.92Q61.20 46.20 63.50 49.88Q65.80 53.55 68.85 56.50L68.85 56.85L65.20 56.85ZM78.25 49.60L92.10 17.60L72.30 17.60L72.30 14.60L95.70 14.60L95.70 17.30L82 49.60L78.25 49.60ZM112.40 50.20Q108.70 50.20 106.15 48.77Q103.60 47.35 102.05 44.98Q100.50 42.60 99.80 39.63Q99.10 36.65 99.10 33.55Q99.10 27.75 100.67 23.35Q102.25 18.95 105.25 16.48Q108.25 14 112.45 14Q115.65 14 117.98 15.25Q120.30 16.50 121.68 18.60Q123.05 20.70 123.35 23.35L120.10 23.35Q119.60 20.35 117.58 18.73Q115.55 17.10 112.45 17.10Q109.65 17.10 107.43 18.80Q105.20 20.50 103.88 24.05Q102.55 27.60 102.35 33Q102.35 33.10 102.35 33.25Q102.35 33.40 102.35 33.55Q103.15 31.85 104.63 30.43Q106.10 29 108.18 28.13Q110.25 27.25 112.85 27.25Q115.85 27.25 118.48 28.65Q121.10 30.05 122.73 32.58Q124.35 35.10 124.35 38.50Q124.35 41.35 122.95 44.05Q121.55 46.75 118.88 48.48Q116.20 50.20 112.40 50.20M112.20 47.10Q114.65 47.10 116.60 46Q118.55 44.90 119.68 43Q120.80 41.10 120.80 38.70Q120.80 36.15 119.68 34.27Q118.55 32.40 116.60 31.38Q114.65 30.35 112.20 30.35Q109.75 30.35 107.78 31.48Q105.80 32.60 104.65 34.52Q103.50 36.45 103.50 38.75Q103.50 41.15 104.63 43.02Q105.75 44.90 107.75 46Q109.75 47.10 112.20 47.10ZM142.15 50.20Q138.65 50.20 136.05 48.93Q133.45 47.65 131.93 45.43Q130.40 43.20 129.95 40.45L133.40 40.45Q134.05 43.45 136.35 45.33Q138.65 47.20 142.20 47.20Q144.90 47.20 146.80 45.95Q148.70 44.70 149.73 42.58Q150.75 40.45 150.75 37.90Q150.75 35.20 149.70 33.10Q148.65 31 146.78 29.82Q144.90 28.65 142.40 28.65Q139.35 28.65 137.20 29.98Q135.05 31.30 133.95 33.45L130.60 33.45L133.55 14.60L151.70 14.60L151.70 17.65L136.25 17.65L134.20 29.20Q135.45 27.65 137.63 26.65Q139.80 25.65 142.65 25.65Q145.15 25.65 147.25 26.55Q149.35 27.45 150.88 29.10Q152.40 30.75 153.25 32.95Q154.10 35.15 154.10 37.85Q154.10 40.30 153.33 42.52Q152.55 44.75 151.03 46.48Q149.50 48.20 147.28 49.20Q145.05 50.20 142.15 50.20ZM162.85 56.85L159.20 56.85L159.20 56.50Q162.25 53.55 164.55 49.88Q166.85 46.20 168.15 41.92Q169.45 37.65 169.45 32.95Q169.45 28.25 168.18 23.98Q166.90 19.70 164.60 16.02Q162.30 12.35 159.20 9.40L159.20 9.05L162.85 9.05Q165.55 11.55 167.88 15.10Q170.20 18.65 171.60 23.15Q173 27.65 173 32.95Q173 38.25 171.60 42.73Q170.20 47.20 167.88 50.75Q165.55 54.30 162.85 56.85ZM208.85 49.60L208.85 41.75L191.00 41.75L191.00 39.10L208.20 14.60L212.30 14.60L212.30 38.70L217.65 38.70L217.65 41.75L212.30 41.75L212.30 49.60L208.85 49.60M194.90 38.70L209.00 38.70L209.00 18.50L209.00 18.50L194.90 38.70ZM235.20 50.20Q231.50 50.20 228.95 48.77Q226.40 47.35 224.85 44.98Q223.30 42.60 222.60 39.63Q221.90 36.65 221.90 33.55Q221.90 27.75 223.48 23.35Q225.05 18.95 228.05 16.48Q231.05 14 235.25 14Q238.45 14 240.78 15.25Q243.10 16.50 244.48 18.60Q245.85 20.70 246.15 23.35L242.90 23.35Q242.40 20.35 240.38 18.73Q238.35 17.10 235.25 17.10Q232.45 17.10 230.23 18.80Q228.00 20.50 226.68 24.05Q225.35 27.60 225.15 33Q225.15 33.10 225.15 33.25Q225.15 33.40 225.15 33.55Q225.95 31.85 227.43 30.43Q228.90 29 230.98 28.13Q233.05 27.25 235.65 27.25Q238.65 27.25 241.28 28.65Q243.90 30.05 245.53 32.58Q247.15 35.10 247.15 38.50Q247.15 41.35 245.75 44.05Q244.35 46.75 241.68 48.48Q239.00 50.20 235.20 50.20M235.00 47.10Q237.45 47.10 239.40 46Q241.35 44.90 242.48 43Q243.60 41.10 243.60 38.70Q243.60 36.15 242.48 34.27Q241.35 32.40 239.40 31.38Q237.45 30.35 235.00 30.35Q232.55 30.35 230.58 31.48Q228.60 32.60 227.45 34.52Q226.30 36.45 226.30 38.75Q226.30 41.15 227.43 43.02Q228.55 44.90 230.55 46Q232.55 47.10 235.00 47.10ZM270.10 49.60L270.10 41.75L252.25 41.75L252.25 39.10L269.45 14.60L273.55 14.60L273.55 38.70L278.90 38.70L278.90 41.75L273.55 41.75L273.55 49.60L270.10 49.60M256.15 38.70L270.25 38.70L270.25 18.50L270.25 18.50L256.15 38.70ZM282.75 36.40L282.75 33.40L302.20 33.40L302.20 36.40L282.75 36.40ZM319.90 50.20Q316.70 50.20 314.40 48.95Q312.10 47.70 310.73 45.58Q309.35 43.45 309.00 40.85L312.25 40.85Q312.80 43.85 314.83 45.48Q316.85 47.10 319.95 47.10Q322.75 47.10 324.95 45.40Q327.15 43.70 328.48 40.17Q329.80 36.65 330.00 31.30Q330.00 31.15 330.00 30.98Q330.00 30.80 330.00 30.65Q329.25 32.30 327.78 33.75Q326.30 35.20 324.25 36.08Q322.20 36.95 319.55 36.95Q316.55 36.95 313.93 35.55Q311.30 34.15 309.65 31.60Q308.00 29.05 308.00 25.70Q308.00 22.80 309.43 20.13Q310.85 17.45 313.53 15.73Q316.20 14 319.95 14Q323.70 14 326.25 15.40Q328.80 16.80 330.35 19.20Q331.90 21.60 332.60 24.57Q333.30 27.55 333.30 30.65Q333.30 36.40 331.70 40.80Q330.10 45.20 327.13 47.70Q324.15 50.20 319.90 50.20M320.20 33.85Q322.65 33.85 324.63 32.70Q326.60 31.55 327.75 29.65Q328.90 27.75 328.90 25.45Q328.90 23 327.75 21.13Q326.60 19.25 324.65 18.18Q322.70 17.10 320.20 17.10Q317.70 17.10 315.75 18.20Q313.80 19.30 312.70 21.18Q311.60 23.05 311.60 25.50Q311.60 28 312.73 29.90Q313.85 31.80 315.80 32.83Q317.75 33.85 320.20 33.85ZM338.65 49.60L338.65 47.15Q342.30 44.25 345.55 41.33Q348.80 38.40 351.33 35.50Q353.85 32.60 355.30 29.82Q356.75 27.05 356.75 24.40Q356.75 22.50 356.08 20.80Q355.40 19.10 353.90 18.05Q352.40 17 349.75 17Q347.25 17 345.60 18.10Q343.95 19.20 343.15 20.98Q342.35 22.75 342.35 24.85L338.95 24.85Q338.95 21.50 340.35 19.07Q341.75 16.65 344.18 15.33Q346.60 14 349.80 14Q352.75 14 355.10 15.10Q357.45 16.20 358.85 18.50Q360.25 20.80 360.25 24.35Q360.25 26.85 359.18 29.38Q358.10 31.90 356.35 34.30Q354.60 36.70 352.45 38.92Q350.30 41.15 348.08 43.13Q345.85 45.10 343.95 46.65L361.55 46.65L361.55 49.60L338.65 49.60ZM382.75 49.60L382.75 41.75L364.90 41.75L364.90 39.10L382.10 14.60L386.20 14.60L386.20 38.70L391.55 38.70L391.55 41.75L386.20 41.75L386.20 49.60L382.75 49.60M368.80 38.70L382.90 38.70L382.90 18.50L382.90 18.50L368.80 38.70ZM400.25 49.60L414.10 17.60L394.30 17.60L394.30 14.60L417.70 14.60L417.70 17.30L404.00 49.60L400.25 49.60ZM437.35 54.60L437.35 13.60L440.85 13.60L440.85 54.60L437.35 54.60ZM473.10 50.20Q469.40 50.20 466.68 48.48Q463.95 46.75 462.45 43.75Q460.95 40.75 460.95 36.95Q460.95 33.15 462.45 30.18Q463.95 27.20 466.70 25.50Q469.45 23.80 473.15 23.80Q476.30 23.80 478.73 25.18Q481.15 26.55 482.45 29.05L482.45 13.60L485.95 13.60L485.95 49.60L482.75 49.60L482.45 45.05L482.45 45.05Q481.70 46.35 480.40 47.55Q479.10 48.75 477.28 49.48Q475.45 50.20 473.10 50.20M473.35 47.15Q476.00 47.15 477.98 45.88Q479.95 44.60 481.10 42.33Q482.25 40.05 482.25 37Q482.25 33.95 481.10 31.65Q479.95 29.35 477.98 28.10Q476.00 26.85 473.35 26.85Q470.80 26.85 468.78 28.10Q466.75 29.35 465.63 31.63Q464.50 33.90 464.50 37Q464.50 40.10 465.65 42.38Q466.80 44.65 468.80 45.90Q470.80 47.15 473.35 47.15ZM502.30 50.20Q499.30 50.20 497.03 49.20Q494.75 48.20 493.38 46.33Q492.00 44.45 491.70 41.85L495.35 41.85Q495.60 43.30 496.48 44.50Q497.35 45.70 498.85 46.40Q500.35 47.10 502.40 47.10Q504.30 47.10 505.53 46.55Q506.75 46 507.38 45.02Q508.00 44.05 508.00 42.85Q508.00 41.20 507.23 40.27Q506.45 39.35 505.00 38.90Q503.55 38.45 501.50 38.05Q499.80 37.75 498.28 37.25Q496.75 36.75 495.53 35.95Q494.30 35.15 493.58 33.92Q492.85 32.70 492.85 31.05Q492.85 28.90 493.93 27.27Q495.00 25.65 497.00 24.73Q499.00 23.80 501.70 23.80Q505.55 23.80 508.00 25.73Q510.45 27.65 510.85 31.35L507.35 31.35Q507.15 29.30 505.65 28.10Q504.15 26.90 501.60 26.90Q499.10 26.90 497.78 27.93Q496.45 28.95 496.45 30.70Q496.45 31.80 497.15 32.60Q497.85 33.40 499.23 33.98Q500.60 34.55 502.60 34.95Q505.00 35.40 507.03 36.13Q509.05 36.85 510.33 38.33Q511.60 39.80 511.60 42.50Q511.65 44.75 510.50 46.50Q509.35 48.25 507.28 49.23Q505.20 50.20 502.30 50.20ZM527.55 61.20Q524.20 61.20 521.63 60.30Q519.05 59.40 517.58 57.60Q516.10 55.80 516.10 53.15Q516.10 52.10 516.48 50.88Q516.85 49.65 517.95 48.40Q519.05 47.15 521.05 46.15L523.90 47.40Q521.25 48.65 520.45 50.13Q519.65 51.60 519.65 52.80Q519.65 54.60 520.67 55.80Q521.70 57 523.48 57.60Q525.25 58.20 527.55 58.20Q529.85 58.20 531.52 57.55Q533.20 56.90 534.10 55.68Q535 54.45 535 52.85Q535 51 533.58 49.73Q532.15 48.45 528.30 48.25Q525.25 48.05 523.27 47.73Q521.30 47.40 520.02 46.93Q518.75 46.45 517.92 45.90Q517.10 45.35 516.35 44.70L516.35 43.55L521.15 39L524.35 40.15L519.65 44.35L519.95 43Q520.55 43.40 521.05 43.75Q521.55 44.10 522.42 44.33Q523.30 44.55 524.88 44.77Q526.45 45 529.15 45.20Q532.60 45.45 534.65 46.40Q536.70 47.35 537.65 48.95Q538.60 50.55 538.60 52.70Q538.60 54.85 537.42 56.78Q536.25 58.70 533.83 59.95Q531.40 61.20 527.55 61.20M527.50 41.60Q524.30 41.60 522.13 40.40Q519.95 39.20 518.80 37.17Q517.65 35.15 517.65 32.70Q517.65 30.20 518.80 28.20Q519.95 26.20 522.15 25Q524.35 23.80 527.50 23.80Q530.70 23.80 532.88 25Q535.05 26.20 536.17 28.20Q537.30 30.20 537.30 32.70Q537.30 35.15 536.17 37.17Q535.05 39.20 532.88 40.40Q530.70 41.60 527.50 41.60M527.50 38.60Q530.40 38.60 532.08 37.08Q533.75 35.55 533.75 32.70Q533.75 29.80 532.08 28.30Q530.40 26.80 527.50 26.80Q524.60 26.80 522.88 28.30Q521.15 29.80 521.15 32.70Q521.15 35.55 522.85 37.08Q524.55 38.60 527.50 38.60M531.60 27.55L530.35 24.40L540.55 24.40L540.55 27.25L531.60 27.55ZM553.45 50.20Q550.40 50.20 548.38 49.10Q546.35 48 545.38 46.25Q544.40 44.50 544.40 42.40Q544.40 39.80 545.73 38Q547.05 36.20 549.48 35.30Q551.90 34.40 555.05 34.40L561.85 34.40Q561.85 31.95 561.10 30.25Q560.35 28.55 558.93 27.68Q557.50 26.80 555.30 26.80Q552.70 26.80 550.85 28.10Q549 29.40 548.55 31.90L544.90 31.90Q545.20 29.25 546.73 27.45Q548.25 25.65 550.52 24.73Q552.80 23.80 555.30 23.80Q558.75 23.80 560.98 25.13Q563.20 26.45 564.27 28.75Q565.35 31.05 565.35 34.05L565.35 49.60L562.15 49.60L562 45L562 45Q561.50 46.05 560.73 47Q559.95 47.95 558.93 48.65Q557.90 49.35 556.55 49.77Q555.20 50.20 553.45 50.20M553.85 47.10Q555.75 47.10 557.20 46.35Q558.65 45.60 559.70 44.35Q560.75 43.10 561.30 41.50Q561.85 39.90 561.85 38.25L561.85 37.35L555.30 37.35Q552.65 37.35 551.05 38Q549.45 38.65 548.75 39.75Q548.05 40.85 548.05 42.30Q548.05 43.75 548.73 44.83Q549.40 45.90 550.70 46.50Q552 47.10 553.85 47.10ZM571.95 49.60L571.95 13.60L575.45 13.60L575.45 49.60L571.95 49.60ZM582.55 49.60L582.55 13.60L586.05 13.60L586.05 49.60L582.55 49.60ZM602.25 50.20Q599.40 50.20 597.23 49.08Q595.05 47.95 593.85 45.60Q592.65 43.25 592.65 39.65L592.65 24.40L596.15 24.40L596.15 39.25Q596.15 43.25 597.93 45.20Q599.70 47.15 602.85 47.15Q605.10 47.15 606.88 46.08Q608.65 45 609.68 42.95Q610.70 40.90 610.70 37.90L610.70 24.40L614.20 24.40L614.20 49.60L611 49.60L610.80 45.10L610.80 45.10Q609.60 47.50 607.33 48.85Q605.05 50.20 602.25 50.20ZM621.30 60.60L621.30 24.40L624.50 24.40L624.80 28.95L624.80 28.95Q625.60 27.60 626.90 26.43Q628.20 25.25 630.02 24.52Q631.85 23.80 634.20 23.80Q637.85 23.80 640.58 25.55Q643.30 27.30 644.80 30.27Q646.30 33.25 646.30 37.05Q646.30 40.85 644.77 43.83Q643.25 46.80 640.55 48.50Q637.85 50.20 634.15 50.20Q630.95 50.20 628.52 48.83Q626.10 47.45 624.80 44.95L624.80 60.60L621.30 60.60M633.90 47.15Q636.50 47.15 638.50 45.88Q640.50 44.60 641.63 42.35Q642.75 40.10 642.75 37Q642.75 33.95 641.63 31.65Q640.50 29.35 638.50 28.10Q636.50 26.85 633.90 26.85Q631.30 26.85 629.30 28.10Q627.30 29.35 626.15 31.63Q625 33.90 625 37Q625 40.05 626.15 42.33Q627.30 44.60 629.30 45.88Q631.30 47.15 633.90 47.15ZM661.55 50.20Q658.55 50.20 656.27 49.20Q654 48.20 652.63 46.33Q651.25 44.45 650.95 41.85L654.60 41.85Q654.85 43.30 655.73 44.50Q656.60 45.70 658.10 46.40Q659.60 47.10 661.65 47.10Q663.55 47.10 664.77 46.55Q666 46 666.63 45.02Q667.25 44.05 667.25 42.85Q667.25 41.20 666.48 40.27Q665.70 39.35 664.25 38.90Q662.80 38.45 660.75 38.05Q659.05 37.75 657.52 37.25Q656 36.75 654.77 35.95Q653.55 35.15 652.83 33.92Q652.10 32.70 652.10 31.05Q652.10 28.90 653.17 27.27Q654.25 25.65 656.25 24.73Q658.25 23.80 660.95 23.80Q664.80 23.80 667.25 25.73Q669.70 27.65 670.10 31.35L666.60 31.35Q666.40 29.30 664.90 28.10Q663.40 26.90 660.85 26.90Q658.35 26.90 657.02 27.93Q655.70 28.95 655.70 30.70Q655.70 31.80 656.40 32.60Q657.10 33.40 658.48 33.98Q659.85 34.55 661.85 34.95Q664.25 35.40 666.27 36.13Q668.30 36.85 669.58 38.33Q670.85 39.80 670.85 42.50Q670.90 44.75 669.75 46.50Q668.60 48.25 666.52 49.23Q664.45 50.20 661.55 50.20ZM694.85 59.35Q689.70 59.35 685.75 57.30Q681.80 55.25 679.58 51.45Q677.35 47.65 677.35 42.55Q677.35 37.35 679.10 32.85Q680.85 28.35 684.05 24.95Q687.25 21.55 691.70 19.68Q696.15 17.80 701.50 17.80Q706.95 17.80 710.98 19.90Q715 22 717.23 25.75Q719.45 29.50 719.45 34.45Q719.45 37.35 718.80 40.08Q718.15 42.80 716.80 45.02Q715.45 47.25 713.60 48.58Q711.75 49.90 709.25 49.90Q706.40 49.90 705.15 48.10Q703.90 46.30 704.20 43.50L704.40 41.75L705.20 42.95Q703.90 46.15 701.17 48.02Q698.45 49.90 695.25 49.90Q691.50 49.90 689.40 47.58Q687.30 45.25 687.30 41.30Q687.30 38.55 688.15 36.05Q689 33.55 690.58 31.57Q692.15 29.60 694.35 28.45Q696.55 27.30 699.25 27.30Q702.35 27.30 704.20 29Q706.05 30.70 706.35 33.95L705.35 34.55L706.50 27.90L709.55 27.90L707 42.45Q706.65 44.65 707.25 46.05Q707.85 47.45 709.75 47.45Q711.40 47.45 712.67 46.27Q713.95 45.10 714.83 43.17Q715.70 41.25 716.13 39.02Q716.55 36.80 716.55 34.65Q716.55 30.20 714.65 27Q712.75 23.80 709.27 22.07Q705.80 20.35 701.05 20.35Q696.50 20.35 692.70 22.02Q688.90 23.70 686.10 26.70Q683.30 29.70 681.80 33.67Q680.30 37.65 680.30 42.20Q680.30 46.85 682.15 50.13Q684 53.40 687.45 55.10Q690.90 56.80 695.60 56.80Q697.70 56.80 699.85 56.38Q702 55.95 703.85 55.10L704.40 57.55Q702.20 58.45 699.77 58.90Q697.35 59.35 694.85 59.35M696.25 47.15Q698.45 47.15 700.33 45.95Q702.20 44.75 703.40 42.63Q704.60 40.50 704.90 37.70Q705.15 35.60 704.60 33.85Q704.05 32.10 702.73 31.07Q701.40 30.05 699.25 30.05Q697.25 30.05 695.63 30.98Q694 31.90 692.85 33.42Q691.70 34.95 691.13 36.85Q690.55 38.75 690.55 40.80Q690.55 43.70 692 45.43Q693.45 47.15 696.25 47.15ZM726.85 60.60L726.85 24.40L730.05 24.40L730.35 28.95L730.35 28.95Q731.15 27.60 732.45 26.43Q733.75 25.25 735.57 24.52Q737.40 23.80 739.75 23.80Q743.40 23.80 746.13 25.55Q748.85 27.30 750.35 30.27Q751.85 33.25 751.85 37.05Q751.85 40.85 750.32 43.83Q748.80 46.80 746.10 48.50Q743.40 50.20 739.70 50.20Q736.50 50.20 734.07 48.83Q731.65 47.45 730.35 44.95L730.35 60.60L726.85 60.60M739.45 47.15Q742.05 47.15 744.05 45.88Q746.05 44.60 747.17 42.35Q748.30 40.10 748.30 37Q748.30 33.95 747.17 31.65Q746.05 29.35 744.05 28.10Q742.05 26.85 739.45 26.85Q736.85 26.85 734.85 28.10Q732.85 29.35 731.70 31.63Q730.55 33.90 730.55 37Q730.55 40.05 731.70 42.33Q732.85 44.60 734.85 45.88Q736.85 47.15 739.45 47.15ZM757.85 49.60L757.85 24.40L761.05 24.40L761.30 29.25L761.30 29.25Q762.10 27.50 763.45 26.30Q764.80 25.10 766.70 24.45Q768.60 23.80 771 23.80L771 27.45L769.65 27.45Q768.05 27.45 766.55 27.88Q765.05 28.30 763.90 29.30Q762.75 30.30 762.05 32Q761.35 33.70 761.35 36.25L761.35 49.60L757.85 49.60ZM785.90 50.20Q782.45 50.20 779.67 48.58Q776.90 46.95 775.30 43.98Q773.70 41 773.70 37.05Q773.70 32.95 775.32 30Q776.95 27.05 779.75 25.43Q782.55 23.80 786.00 23.80Q789.60 23.80 792.35 25.43Q795.10 27.05 796.70 30Q798.30 32.95 798.30 37.05Q798.30 41 796.67 43.98Q795.05 46.95 792.27 48.58Q789.50 50.20 785.90 50.20M785.95 47.20Q788.30 47.20 790.27 46.05Q792.25 44.90 793.47 42.63Q794.70 40.35 794.70 37Q794.70 33.60 793.50 31.35Q792.30 29.10 790.32 27.98Q788.35 26.85 786.00 26.85Q783.75 26.85 781.75 28Q779.75 29.15 778.52 31.38Q777.30 33.60 777.30 37Q777.30 40.35 778.50 42.63Q779.70 44.90 781.67 46.05Q783.65 47.20 785.95 47.20ZM812.85 49.60Q810.70 49.60 809.15 48.93Q807.60 48.25 806.77 46.68Q805.95 45.10 805.95 42.35L805.95 27.40L801.55 27.40L801.55 24.40L805.95 24.40L806.45 18.55L809.45 18.55L809.45 24.45L817.00 24.45L817.00 27.40L809.45 27.40L809.45 42.35Q809.45 44.85 810.45 45.73Q811.45 46.60 814.00 46.60L816.60 46.60L816.60 49.60L812.85 49.60ZM832.85 50.20Q829.40 50.20 826.62 48.58Q823.85 46.95 822.25 43.98Q820.65 41 820.65 37.05Q820.65 32.95 822.27 30Q823.90 27.05 826.70 25.43Q829.50 23.80 832.95 23.80Q836.55 23.80 839.30 25.43Q842.05 27.05 843.65 30Q845.25 32.95 845.25 37.05Q845.25 41 843.62 43.98Q842.00 46.95 839.22 48.58Q836.45 50.20 832.85 50.20M832.90 47.20Q835.25 47.20 837.22 46.05Q839.20 44.90 840.42 42.63Q841.65 40.35 841.65 37Q841.65 33.60 840.45 31.35Q839.25 29.10 837.27 27.98Q835.30 26.85 832.95 26.85Q830.70 26.85 828.70 28Q826.70 29.15 825.47 31.38Q824.25 33.60 824.25 37Q824.25 40.35 825.45 42.63Q826.65 44.90 828.62 46.05Q830.60 47.20 832.90 47.20ZM851.25 49.60L851.25 24.40L854.45 24.40L854.65 28.90L854.65 28.90Q855.85 26.50 858.12 25.15Q860.40 23.80 863.20 23.80Q866.10 23.80 868.25 24.95Q870.40 26.10 871.60 28.43Q872.80 30.75 872.80 34.35L872.80 49.60L869.30 49.60L869.30 34.75Q869.30 30.75 867.55 28.80Q865.80 26.85 862.60 26.85Q860.35 26.85 858.57 27.93Q856.80 29 855.77 31.05Q854.75 33.10 854.75 36.10L854.75 49.60L851.25 49.60ZM879.40 49.60L879.40 24.40L882.60 24.40L882.85 28.20L882.85 28.20Q884.00 26.10 886.05 24.95Q888.10 23.80 890.60 23.80Q892.50 23.80 894.10 24.35Q895.70 24.90 896.90 26Q898.10 27.10 898.85 28.85L898.85 28.85Q900.05 26.50 902.32 25.15Q904.60 23.80 907.20 23.80Q910.10 23.80 912.25 24.95Q914.40 26.10 915.57 28.45Q916.75 30.80 916.75 34.40L916.75 49.60L913.25 49.60L913.25 34.80Q913.25 30.80 911.62 28.82Q910.00 26.85 907.00 26.85Q905.00 26.85 903.35 27.93Q901.70 29 900.77 31.03Q899.85 33.05 899.85 36.05L899.85 49.60L896.35 49.60L896.35 34.80Q896.35 30.80 894.70 28.82Q893.05 26.85 890.15 26.85Q888.05 26.85 886.42 27.93Q884.80 29 883.85 31.07Q882.90 33.15 882.90 36.20L882.90 49.60L879.40 49.60ZM931.40 50.20Q928.35 50.20 926.32 49.10Q924.30 48 923.32 46.25Q922.35 44.50 922.35 42.40Q922.35 39.80 923.67 38Q925.00 36.20 927.42 35.30Q929.85 34.40 933.00 34.40L939.80 34.40Q939.80 31.95 939.05 30.25Q938.30 28.55 936.87 27.68Q935.45 26.80 933.25 26.80Q930.65 26.80 928.80 28.10Q926.95 29.40 926.50 31.90L922.85 31.90Q923.15 29.25 924.67 27.45Q926.20 25.65 928.47 24.73Q930.75 23.80 933.25 23.80Q936.70 23.80 938.92 25.13Q941.15 26.45 942.22 28.75Q943.30 31.05 943.30 34.05L943.30 49.60L940.10 49.60L939.95 45L939.95 45Q939.45 46.05 938.67 47Q937.90 47.95 936.87 48.65Q935.85 49.35 934.50 49.77Q933.15 50.20 931.40 50.20M931.80 47.10Q933.70 47.10 935.15 46.35Q936.60 45.60 937.65 44.35Q938.70 43.10 939.25 41.50Q939.80 39.90 939.80 38.25L939.80 37.35L933.25 37.35Q930.60 37.35 929.00 38Q927.40 38.65 926.70 39.75Q926.00 40.85 926.00 42.30Q926.00 43.75 926.67 44.83Q927.35 45.90 928.65 46.50Q929.95 47.10 931.80 47.10ZM950.40 49.60L950.40 24.40L953.90 24.40L953.90 49.60L950.40 49.60M952.15 18.45Q951.10 18.45 950.35 17.73Q949.60 17 949.60 15.90Q949.60 14.75 950.32 14.08Q951.05 13.40 952.15 13.40Q953.15 13.40 953.90 14.08Q954.65 14.75 954.65 15.90Q954.65 17 953.92 17.73Q953.20 18.45 952.15 18.45ZM961.45 49.60L961.45 13.60L964.95 13.60L964.95 49.60L961.45 49.60ZM973.20 49.85Q972.10 49.85 971.37 49.10Q970.65 48.35 970.65 47.25Q970.65 46.15 971.37 45.43Q972.10 44.70 973.20 44.70Q974.30 44.70 975.02 45.43Q975.75 46.15 975.75 47.25Q975.75 48.35 975.02 49.10Q974.30 49.85 973.20 49.85ZM992.55 50.20Q989.10 50.20 986.32 48.55Q983.55 46.90 981.95 43.92Q980.35 40.95 980.35 37.05Q980.35 33 981.95 30.07Q983.55 27.15 986.32 25.48Q989.10 23.80 992.55 23.80Q996.95 23.80 999.87 26.07Q1002.80 28.35 1003.60 32.10L1000.10 32.10Q999.55 29.60 997.47 28.23Q995.40 26.85 992.55 26.85Q990.25 26.85 988.30 27.98Q986.35 29.10 985.15 31.35Q983.95 33.60 983.95 37.05Q983.95 39.60 984.65 41.50Q985.35 43.40 986.57 44.67Q987.80 45.95 989.32 46.60Q990.85 47.25 992.55 47.25Q994.40 47.25 995.97 46.63Q997.55 46 998.65 44.80Q999.75 43.60 1000.10 41.90L1003.60 41.90Q1002.85 45.55 999.90 47.88Q996.95 50.20 992.55 50.20ZM1020.70 50.20Q1017.25 50.20 1014.47 48.58Q1011.70 46.95 1010.10 43.98Q1008.50 41 1008.50 37.05Q1008.50 32.95 1010.12 30Q1011.75 27.05 1014.55 25.43Q1017.35 23.80 1020.80 23.80Q1024.40 23.80 1027.15 25.43Q1029.90 27.05 1031.50 30Q1033.10 32.95 1033.10 37.05Q1033.10 41 1031.47 43.98Q1029.85 46.95 1027.07 48.58Q1024.30 50.20 1020.70 50.20M1020.75 47.20Q1023.10 47.20 1025.07 46.05Q1027.05 44.90 1028.27 42.63Q1029.50 40.35 1029.50 37Q1029.50 33.60 1028.30 31.35Q1027.10 29.10 1025.12 27.98Q1023.15 26.85 1020.80 26.85Q1018.55 26.85 1016.55 28Q1014.55 29.15 1013.32 31.38Q1012.10 33.60 1012.10 37Q1012.10 40.35 1013.30 42.63Q1014.50 44.90 1016.47 46.05Q1018.45 47.20 1020.75 47.20ZM1039.10 49.60L1039.10 24.40L1042.30 24.40L1042.55 28.20L1042.55 28.20Q1043.70 26.10 1045.75 24.95Q1047.80 23.80 1050.30 23.80Q1052.20 23.80 1053.80 24.35Q1055.40 24.90 1056.60 26Q1057.80 27.10 1058.55 28.85L1058.55 28.85Q1059.75 26.50 1062.02 25.15Q1064.30 23.80 1066.90 23.80Q1069.80 23.80 1071.95 24.95Q1074.10 26.10 1075.27 28.45Q1076.45 30.80 1076.45 34.40L1076.45 49.60L1072.95 49.60L1072.95 34.80Q1072.95 30.80 1071.32 28.82Q1069.70 26.85 1066.70 26.85Q1064.70 26.85 1063.05 27.93Q1061.40 29 1060.47 31.03Q1059.55 33.05 1059.55 36.05L1059.55 49.60L1056.05 49.60L1056.05 34.80Q1056.05 30.80 1054.40 28.82Q1052.75 26.85 1049.85 26.85Q1047.75 26.85 1046.12 27.93Q1044.50 29 1043.55 31.07Q1042.60 33.15 1042.60 36.20L1042.60 49.60L1039.10 49.60Z"/></g></g></svg>